<?xml version="1.0" encoding="UTF-8" standalone="no"?>
<!-- Created with Inkscape (http://www.inkscape.org/) -->

<svg
   xmlns:dc="http://purl.org/dc/elements/1.1/"
   xmlns:cc="http://creativecommons.org/ns#"
   xmlns:rdf="http://www.w3.org/1999/02/22-rdf-syntax-ns#"
   xmlns:svg="http://www.w3.org/2000/svg"
   xmlns="http://www.w3.org/2000/svg"
   xmlns:sodipodi="http://sodipodi.sourceforge.net/DTD/sodipodi-0.dtd"
   xmlns:inkscape="http://www.inkscape.org/namespaces/inkscape"
   id="svg4155"
   version="1.1"
   inkscape:version="0.91 r13725"
   xml:space="preserve"
   width="576"
   height="432"
   viewBox="0 0 576 432"
   sodipodi:docname="ROC.svg"><metadata
     id="metadata4161"><rdf:RDF><cc:Work
         rdf:about=""><dc:format>image/svg+xml</dc:format><dc:type
           rdf:resource="http://purl.org/dc/dcmitype/StillImage" /><dc:title></dc:title></cc:Work></rdf:RDF></metadata><defs
     id="defs4159"><clipPath
       clipPathUnits="userSpaceOnUse"
       id="clipPath4253"><path
         d="m 57.6,38.016 357.12,0 0,266.112 -357.12,0 0,-266.112 z"
         id="path4255"
         inkscape:connector-curvature="0" /></clipPath><clipPath
       clipPathUnits="userSpaceOnUse"
       id="clipPath4263"><path
         d="m 57.6,38.016 357.12,0 0,266.112 -357.12,0 0,-266.112 z"
         id="path4265"
         inkscape:connector-curvature="0" /></clipPath></defs><sodipodi:namedview
     pagecolor="#ffffff"
     bordercolor="#666666"
     borderopacity="1"
     objecttolerance="10"
     gridtolerance="10"
     guidetolerance="10"
     inkscape:pageopacity="0"
     inkscape:pageshadow="2"
     inkscape:window-width="1680"
     inkscape:window-height="974"
     id="namedview4157"
     showgrid="false"
     inkscape:zoom="0.96527778"
     inkscape:cx="249.24536"
     inkscape:cy="271.69737"
     inkscape:window-x="0"
     inkscape:window-y="24"
     inkscape:window-maximized="1"
     inkscape:current-layer="g4163" /><g
     id="g4163"
     inkscape:groupmode="layer"
     inkscape:label="1_ROC"
     transform="matrix(1.25,0,0,-1.25,0,432)"><path
       d="m 0,0 460.8,0 0,345.6 L 0,345.6 0,0 Z"
       style="fill:#ffffff;fill-opacity:1;fill-rule:nonzero;stroke:none"
       id="path4165"
       inkscape:connector-curvature="0" /><path
       d="m 57.6,38.016 357.12,0 0,266.112 -357.12,0 0,-266.112 z"
       style="fill:#ffffff;fill-opacity:1;fill-rule:nonzero;stroke:none"
       id="path4167"
       inkscape:connector-curvature="0" /><path
       d="m 57.6,38.016 0,-3.5"
       style="fill:#000000;fill-opacity:1;fill-rule:nonzero;stroke:#000000;stroke-width:0.80000001;stroke-linecap:butt;stroke-linejoin:round;stroke-miterlimit:10;stroke-dasharray:none;stroke-opacity:1"
       id="path4169"
       inkscape:connector-curvature="0" /><text
       transform="matrix(1,0,0,-1,49.646875,23.42225)"
       style="font-variant:normal;font-weight:normal;font-size:10px;font-family:'DejaVu Sans';-inkscape-font-specification:DejaVuSans;writing-mode:lr-tb;fill:#000000;fill-opacity:1;fill-rule:nonzero;stroke:none"
       id="text4171"><tspan
         x="0 6.3600001 9.54"
         y="0"
         sodipodi:role="line"
         id="tspan4173">0.0</tspan></text>
<path
       d="m 129.024,38.016 0,-3.5"
       style="fill:#000000;fill-opacity:1;fill-rule:nonzero;stroke:#000000;stroke-width:0.80000001;stroke-linecap:butt;stroke-linejoin:round;stroke-miterlimit:10;stroke-dasharray:none;stroke-opacity:1"
       id="path4175"
       inkscape:connector-curvature="0" /><text
       transform="matrix(1,0,0,-1,121.07087,23.42225)"
       style="font-variant:normal;font-weight:normal;font-size:10px;font-family:'DejaVu Sans';-inkscape-font-specification:DejaVuSans;writing-mode:lr-tb;fill:#000000;fill-opacity:1;fill-rule:nonzero;stroke:none"
       id="text4177"><tspan
         x="0 6.3600001 9.54"
         y="0"
         sodipodi:role="line"
         id="tspan4179">0.2</tspan></text>
<path
       d="m 200.448,38.016 0,-3.5"
       style="fill:#000000;fill-opacity:1;fill-rule:nonzero;stroke:#000000;stroke-width:0.80000001;stroke-linecap:butt;stroke-linejoin:round;stroke-miterlimit:10;stroke-dasharray:none;stroke-opacity:1"
       id="path4181"
       inkscape:connector-curvature="0" /><text
       transform="matrix(1,0,0,-1,192.49487,23.42225)"
       style="font-variant:normal;font-weight:normal;font-size:10px;font-family:'DejaVu Sans';-inkscape-font-specification:DejaVuSans;writing-mode:lr-tb;fill:#000000;fill-opacity:1;fill-rule:nonzero;stroke:none"
       id="text4183"><tspan
         x="0 6.3600001 9.54"
         y="0"
         sodipodi:role="line"
         id="tspan4185">0.4</tspan></text>
<path
       d="m 271.872,38.016 0,-3.5"
       style="fill:#000000;fill-opacity:1;fill-rule:nonzero;stroke:#000000;stroke-width:0.80000001;stroke-linecap:butt;stroke-linejoin:round;stroke-miterlimit:10;stroke-dasharray:none;stroke-opacity:1"
       id="path4187"
       inkscape:connector-curvature="0" /><text
       transform="matrix(1,0,0,-1,263.91887,23.42225)"
       style="font-variant:normal;font-weight:normal;font-size:10px;font-family:'DejaVu Sans';-inkscape-font-specification:DejaVuSans;writing-mode:lr-tb;fill:#000000;fill-opacity:1;fill-rule:nonzero;stroke:none"
       id="text4189"><tspan
         x="0 6.3600001 9.54"
         y="0"
         sodipodi:role="line"
         id="tspan4191">0.6</tspan></text>
<path
       d="m 343.296,38.016 0,-3.5"
       style="fill:#000000;fill-opacity:1;fill-rule:nonzero;stroke:#000000;stroke-width:0.80000001;stroke-linecap:butt;stroke-linejoin:round;stroke-miterlimit:10;stroke-dasharray:none;stroke-opacity:1"
       id="path4193"
       inkscape:connector-curvature="0" /><text
       transform="matrix(1,0,0,-1,335.34288,23.42225)"
       style="font-variant:normal;font-weight:normal;font-size:10px;font-family:'DejaVu Sans';-inkscape-font-specification:DejaVuSans;writing-mode:lr-tb;fill:#000000;fill-opacity:1;fill-rule:nonzero;stroke:none"
       id="text4195"><tspan
         x="0 6.3600001 9.54"
         y="0"
         sodipodi:role="line"
         id="tspan4197">0.8</tspan></text>
<path
       d="m 414.72,38.016 0,-3.5"
       style="fill:#000000;fill-opacity:1;fill-rule:nonzero;stroke:#000000;stroke-width:0.80000001;stroke-linecap:butt;stroke-linejoin:round;stroke-miterlimit:10;stroke-dasharray:none;stroke-opacity:1"
       id="path4199"
       inkscape:connector-curvature="0" /><text
       transform="matrix(1,0,0,-1,406.76687,23.42225)"
       style="font-variant:normal;font-weight:normal;font-size:10px;font-family:'DejaVu Sans';-inkscape-font-specification:DejaVuSans;writing-mode:lr-tb;fill:#000000;fill-opacity:1;fill-rule:nonzero;stroke:none"
       id="text4201"><tspan
         x="0 6.3600001 9.54"
         y="0"
         sodipodi:role="line"
         id="tspan4203">1.0</tspan></text>
<text
       transform="matrix(1,0,0,-1,230.26937,9.750375)"
       style="font-variant:normal;font-weight:normal;font-size:10px;font-family:'DejaVu Sans';-inkscape-font-specification:DejaVuSans;writing-mode:lr-tb;fill:#000000;fill-opacity:1;fill-rule:nonzero;stroke:none"
       id="text4205"><tspan
         x="0 5.75"
         y="0"
         sodipodi:role="line"
         id="tspan4207">FP</tspan></text>
<path
       d="m 57.6,38.016 -3.5,0"
       style="fill:#000000;fill-opacity:1;fill-rule:nonzero;stroke:#000000;stroke-width:0.80000001;stroke-linecap:butt;stroke-linejoin:round;stroke-miterlimit:10;stroke-dasharray:none;stroke-opacity:1"
       id="path4209"
       inkscape:connector-curvature="0" /><text
       transform="matrix(1,0,0,-1,34.69375,34.219125)"
       style="font-variant:normal;font-weight:normal;font-size:10px;font-family:'DejaVu Sans';-inkscape-font-specification:DejaVuSans;writing-mode:lr-tb;fill:#000000;fill-opacity:1;fill-rule:nonzero;stroke:none"
       id="text4211"><tspan
         x="0 6.3600001 9.54"
         y="0"
         sodipodi:role="line"
         id="tspan4213">0.0</tspan></text>
<path
       d="m 57.6,91.2384 -3.5,0"
       style="fill:#000000;fill-opacity:1;fill-rule:nonzero;stroke:#000000;stroke-width:0.80000001;stroke-linecap:butt;stroke-linejoin:round;stroke-miterlimit:10;stroke-dasharray:none;stroke-opacity:1"
       id="path4215"
       inkscape:connector-curvature="0" /><text
       transform="matrix(1,0,0,-1,34.69375,87.441525)"
       style="font-variant:normal;font-weight:normal;font-size:10px;font-family:'DejaVu Sans';-inkscape-font-specification:DejaVuSans;writing-mode:lr-tb;fill:#000000;fill-opacity:1;fill-rule:nonzero;stroke:none"
       id="text4217"><tspan
         x="0 6.3600001 9.54"
         y="0"
         sodipodi:role="line"
         id="tspan4219">0.2</tspan></text>
<path
       d="m 57.6,144.4608 -3.5,0"
       style="fill:#000000;fill-opacity:1;fill-rule:nonzero;stroke:#000000;stroke-width:0.80000001;stroke-linecap:butt;stroke-linejoin:round;stroke-miterlimit:10;stroke-dasharray:none;stroke-opacity:1"
       id="path4221"
       inkscape:connector-curvature="0" /><text
       transform="matrix(1,0,0,-1,34.69375,140.66392)"
       style="font-variant:normal;font-weight:normal;font-size:10px;font-family:'DejaVu Sans';-inkscape-font-specification:DejaVuSans;writing-mode:lr-tb;fill:#000000;fill-opacity:1;fill-rule:nonzero;stroke:none"
       id="text4223"><tspan
         x="0 6.3600001 9.54"
         y="0"
         sodipodi:role="line"
         id="tspan4225">0.4</tspan></text>
<path
       d="m 57.6,197.6832 -3.5,0"
       style="fill:#000000;fill-opacity:1;fill-rule:nonzero;stroke:#000000;stroke-width:0.80000001;stroke-linecap:butt;stroke-linejoin:round;stroke-miterlimit:10;stroke-dasharray:none;stroke-opacity:1"
       id="path4227"
       inkscape:connector-curvature="0" /><text
       transform="matrix(1,0,0,-1,34.69375,193.88633)"
       style="font-variant:normal;font-weight:normal;font-size:10px;font-family:'DejaVu Sans';-inkscape-font-specification:DejaVuSans;writing-mode:lr-tb;fill:#000000;fill-opacity:1;fill-rule:nonzero;stroke:none"
       id="text4229"><tspan
         x="0 6.3600001 9.54"
         y="0"
         sodipodi:role="line"
         id="tspan4231">0.6</tspan></text>
<path
       d="m 57.6,250.9056 -3.5,0"
       style="fill:#000000;fill-opacity:1;fill-rule:nonzero;stroke:#000000;stroke-width:0.80000001;stroke-linecap:butt;stroke-linejoin:round;stroke-miterlimit:10;stroke-dasharray:none;stroke-opacity:1"
       id="path4233"
       inkscape:connector-curvature="0" /><text
       transform="matrix(1,0,0,-1,34.69375,247.10872)"
       style="font-variant:normal;font-weight:normal;font-size:10px;font-family:'DejaVu Sans';-inkscape-font-specification:DejaVuSans;writing-mode:lr-tb;fill:#000000;fill-opacity:1;fill-rule:nonzero;stroke:none"
       id="text4235"><tspan
         x="0 6.3600001 9.54"
         y="0"
         sodipodi:role="line"
         id="tspan4237">0.8</tspan></text>
<path
       d="m 57.6,304.128 -3.5,0"
       style="fill:#000000;fill-opacity:1;fill-rule:nonzero;stroke:#000000;stroke-width:0.80000001;stroke-linecap:butt;stroke-linejoin:round;stroke-miterlimit:10;stroke-dasharray:none;stroke-opacity:1"
       id="path4239"
       inkscape:connector-curvature="0" /><text
       transform="matrix(1,0,0,-1,34.69375,300.33112)"
       style="font-variant:normal;font-weight:normal;font-size:10px;font-family:'DejaVu Sans';-inkscape-font-specification:DejaVuSans;writing-mode:lr-tb;fill:#000000;fill-opacity:1;fill-rule:nonzero;stroke:none"
       id="text4241"><tspan
         x="0 6.3600001 9.54"
         y="0"
         sodipodi:role="line"
         id="tspan4243">1.0</tspan></text>
<text
       transform="matrix(0,1,1,0,28.615625,165.00169)"
       style="font-variant:normal;font-weight:normal;font-size:10px;font-family:'DejaVu Sans';-inkscape-font-specification:DejaVuSans;writing-mode:lr-tb;fill:#000000;fill-opacity:1;fill-rule:nonzero;stroke:none"
       id="text4245"><tspan
         x="0 6.1100001"
         y="0"
         sodipodi:role="line"
         id="tspan4247">TP</tspan></text>
<g
       id="g4249"><g
         id="g4251"
         clip-path="url(#clipPath4253)"><path
           d="m 57.6,38.016 0.516083,23.598433 0.05292,2.021115 0.111014,4.109751 0.02978,1.046569 0.797215,25.33146 0.05999,1.809551 0.224802,6.202891 0.111014,3.06318 0.153871,3.91619 0.320788,7.76036 0.01859,0.41638 0.204348,4.66117 0.27153,5.9238 0.03892,0.80125 0.520412,10.08306 0.02216,0.41188 0.148628,2.77509 1.041646,17.02644 0.111014,1.77579 0.211359,2.98216 0.110984,1.57998 0.811419,10.34189 0.07328,0.86202 0.410312,4.81646 0.110862,1.21312 0.325268,3.58534 0.128297,1.2874 0.178653,1.79154 0.181883,1.74653 0.06484,0.63244 0.110831,1.1231 0.145732,1.36391 0.435185,3.98596 0.141374,1.34141 0.125371,1.05557 0.309997,2.59955 0.247236,2.00986 0.1247,1.09833 0.110862,0.9678 0.325939,2.4915 0.160973,1.22663 0.602224,4.39784 0.175849,1.21087 0.04051,0.27008 0.110739,0.76073 0.121835,0.79674 0.166734,1.02406 0.500995,2.87188 0.07681,0.5154 0.120615,0.73373 0.172892,0.92728 0.142775,0.808 0.0488,0.24082 0.222699,1.17261 0.139819,0.73147 0.427382,2.32946 0.277748,1.38192 0.117415,0.61894 0.03277,0.14404 0.253241,1.18611 0.328561,1.45845 0.06069,0.24757 0.136344,0.63244 0.07556,0.34886 0.110953,0.51541 0.42284,1.8073 0.122353,0.47939 0.0598,0.21832 0.185053,0.6662 0.360018,1.40668 0.120463,0.46589 0.130279,0.4794 0.444787,1.59573 0.12345,0.47265 0.663919,2.30695 0.203495,0.61444 0.08989,0.28583 0.729637,2.31821 0.170789,0.4839 0.07785,0.22281 0.633224,1.82081 0.235805,0.57617 0.110709,0.27684 2.110391,5.07754 0.07087,0.15755 0.155822,0.36911 0.19432,0.42538 0.117476,0.25883 0.291343,0.58518 0.117232,0.23632 0.107386,0.19131 0.293507,0.56942 0.15884,0.30835 1.444643,2.87412 0.150731,0.25433 0.340175,0.63469 0.243182,0.42763 0.185358,0.3151 0.314753,0.48615 0.228551,0.40287 0.09413,0.1553 0.124761,0.19131 0.112568,0.1868 1.944114,2.67607 0.143416,0.19131 0.149482,0.21156 0.522362,0.6707 0.107235,0.1373 2.424808,2.67606 0.166155,0.1643 0.176976,0.19131 0.396535,0.42988 0.163625,0.1598 0.248669,0.24982 2.060737,1.91534 0.816448,0.73597 0.234495,0.1643 0.119122,0.11028 0.351209,0.26333 0.115769,0.0833 0.224344,0.17105 0.130309,0.10353 0.220747,0.19581 0.122658,0.10579 0.201361,0.15529 0.311065,0.24083 0.137106,0.0878 0.269701,0.18006 0.159693,0.10803 0.399674,0.28359 0.16774,0.0945 0.50514,0.35335 0.110801,0.072 0.942856,0.58967 0.205415,0.1418 0.497124,0.3286 0.204501,0.12378 0.271621,0.1463 0.145763,0.0968 0.492094,0.31285 0.795028,0.48614 0.44667,0.24758 0.12656,0.0968 0.49392,0.26108 0.31583,0.18005 0.43414,0.19131 4.4679,2.2867 0.40364,0.16204 0.10345,0.0293 0.60591,0.22957 0.12169,0.036 0.8942,0.37587 0.12409,0.063 0.41114,0.1643 0.47722,0.16655 4.10145,1.40668 0.46344,0.13504 0.80212,0.25433 0.14948,0.0495 0.96386,0.27909 0.22465,0.0765 2.00404,0.58743 4.92293,1.3054 0.73823,0.20706 0.772,0.1778 0.27873,0.0675 1.93832,0.39837 0.78399,0.1418 1.30229,0.27908 16.80821,2.64681 3.83485,0.43888 0.11964,0.0113 7.51069,0.83725 1.21719,0.12829 1.70185,0.16205 0.0781,0.0135 2.05611,0.18681 0.0917,0.018 1.56843,0.16205 14.57305,1.12985 1.48073,0.12604 25.08213,1.46294 3.62005,0.20256 0.11199,0.009 3.48587,0.17105 3.01347,0.11253 33.76406,1.36842 36.31587,0.9813 7.96614,0.1868 69.04871,1.19062 18.75433,0.1778 11.00394,0.12154 22.58065,0.23632 0,0"
           style="fill:none;stroke:#1f77b4;stroke-width:1.5;stroke-linecap:square;stroke-linejoin:round;stroke-miterlimit:10;stroke-dasharray:none;stroke-opacity:1"
           id="path4257"
           inkscape:connector-curvature="0" /></g></g><g
       id="g4259"><g
         id="g4261"
         clip-path="url(#clipPath4263)" /></g><path
       inkscape:connector-curvature="0"
       id="path4271"
       style="fill:none;stroke:#000000;stroke-width:0.80000001;stroke-linecap:square;stroke-linejoin:miter;stroke-miterlimit:10;stroke-dasharray:none;stroke-opacity:1"
       d="m 57.6,38.016 0,266.112" /><path
       inkscape:connector-curvature="0"
       id="path4273"
       style="fill:none;stroke:#000000;stroke-width:0.80000001;stroke-linecap:square;stroke-linejoin:miter;stroke-miterlimit:10;stroke-dasharray:none;stroke-opacity:1"
       d="m 414.72,38.016 0,266.112" /><path
       inkscape:connector-curvature="0"
       id="path4275"
       style="fill:none;stroke:#000000;stroke-width:0.80000001;stroke-linecap:square;stroke-linejoin:miter;stroke-miterlimit:10;stroke-dasharray:none;stroke-opacity:1"
       d="m 57.6,38.016 357.12,0" /><path
       inkscape:connector-curvature="0"
       id="path4277"
       style="fill:none;stroke:#000000;stroke-width:0.80000001;stroke-linecap:square;stroke-linejoin:miter;stroke-miterlimit:10;stroke-dasharray:none;stroke-opacity:1"
       d="m 57.6,304.128 357.12,0" /><text
       id="text4293"
       style="font-variant:normal;font-weight:normal;font-size:12px;font-family:'DejaVu Sans';-inkscape-font-specification:DejaVuSans;writing-mode:lr-tb;fill:#000000;fill-opacity:1;fill-rule:nonzero;stroke:none"
       transform="scale(1,-1)"
       x="217.31406"
       y="-329.56299"><tspan
         id="tspan4295"
         sodipodi:role="line"
         y="-329.56299"
         x="217.31406 225.65405 235.09805">ROC</tspan></text>
</g></svg>